<svg width="32" height="32" viewBox="0 0 32 32" fill="none" xmlns="http://www.w3.org/2000/svg">
<g clip-path="url(#clip0_2245_2823)">
<path d="M16.6532 17.3353L15.4132 14.8553C14.9198 13.8686 15.3198 12.6686 16.3065 12.1753L16.6532 12.002L24.2932 19.282C24.9598 19.9086 25.3332 20.7886 25.3332 21.6953V28.6686C25.3332 30.5086 23.8398 32.002 21.9998 32.002H7.33317C6.59984 32.002 5.99984 31.402 5.99984 30.6686C5.99984 29.9353 6.59984 29.3353 7.33317 29.3353H13.3332V28.002H5.33317C4.59984 28.002 3.99984 27.402 3.99984 26.6686C3.99984 25.9353 4.59984 25.3353 5.33317 25.3353H13.3332V24.002H3.99984C3.2665 24.002 2.6665 23.402 2.6665 22.6686C2.6665 21.9353 3.2665 21.3353 3.99984 21.3353H13.3332V20.002H5.99984C5.2665 20.002 4.6665 19.402 4.6665 18.6686C4.6665 17.9353 5.2665 17.3353 5.99984 17.3353H16.6532ZM18.6665 17.602V20.002H15.9998V29.3353H21.3332C22.0665 29.3353 22.6665 28.7353 22.6665 28.002V21.962C22.6665 21.602 22.5198 21.242 22.2532 20.9886L18.6665 17.602ZM15.7065 9.49529C14.5865 10.0286 14.1465 10.322 13.5332 11.082L9.93317 7.28196C9.4265 6.74862 9.45317 5.90862 9.9865 5.40196C10.5198 4.89529 11.3598 4.92196 11.8665 5.45529L15.7065 9.49529ZM12.8532 12.282C12.5465 13.0153 12.4665 13.9353 12.5865 14.6686H11.4398L8.41317 11.482C7.9065 10.9486 7.91984 10.1086 8.4665 9.60196C8.99984 9.09529 9.83984 9.12196 10.3465 9.65529L12.8532 12.282ZM27.1065 18.5486L28.2798 17.442C28.9465 16.8153 29.3332 15.9353 29.3332 15.0153V4.46862L28.9732 4.33529C27.9332 3.96196 26.7865 4.49529 26.4132 5.53529L25.4665 8.14862L18.1332 0.41529C17.6265 -0.118043 16.7865 -0.14471 16.2532 0.361957C15.7198 0.868624 15.6932 1.70862 16.1998 2.24196L21.2532 7.56196L20.2798 8.48196L13.8532 1.70862C13.3465 1.17529 12.5065 1.14862 11.9732 1.65529C11.4398 2.16196 11.4132 3.00196 11.9198 3.53529L16.9598 8.84196L20.5065 12.002L23.0798 9.50862L24.9198 11.442L26.6665 9.78862V14.722C26.6665 15.0953 26.5198 15.442 26.2532 15.6953L25.3198 16.5753L26.1332 17.3486C26.5198 17.7086 26.8398 18.1086 27.1065 18.5486Z" fill="#1C1B1F"/>
</g>
<defs>
<clipPath id="clip0_2245_2823">
<rect width="32" height="32" fill="white"/>
</clipPath>
</defs>
</svg>
