<svg width="33" height="33" viewBox="0 0 33 33" fill="none" xmlns="http://www.w3.org/2000/svg">
<path d="M7.7 27.39L9.7955 25.7139L9.80925 25.7029C10.2465 25.3523 10.4679 25.1762 10.714 25.0511C10.9349 24.9384 11.1678 24.8568 11.4125 24.8064C11.6861 24.75 11.9707 24.75 12.5427 24.75H24.4791C26.0164 24.75 26.7864 24.75 27.3735 24.4502C27.8909 24.1866 28.3116 23.7659 28.5752 23.2485C28.875 22.66 28.875 21.89 28.875 20.3555V9.89588C28.875 8.35862 28.875 7.58862 28.5752 7.0015C28.3112 6.48387 27.8901 6.06316 27.3721 5.79975C26.785 5.5 26.015 5.5 24.475 5.5H8.525C6.985 5.5 6.215 5.5 5.6265 5.79975C5.10908 6.0634 4.6884 6.48408 4.42475 7.0015C4.125 7.59 4.125 8.36 4.125 9.9V25.6726C4.125 27.1384 4.125 27.8712 4.42475 28.2466C4.55364 28.4085 4.7174 28.5391 4.90381 28.6289C5.09022 28.7186 5.29448 28.7652 5.50137 28.765C5.98262 28.765 6.55462 28.3058 7.7 27.39Z" stroke="black" stroke-width="2.75" stroke-linecap="round" stroke-linejoin="round"/>
</svg>
