<svg width="30" height="30" viewBox="0 0 30 30" fill="none" xmlns="http://www.w3.org/2000/svg">
<path d="M7.25 24.9L9.155 23.3763L9.1675 23.3663C9.565 23.0475 9.76625 22.8875 9.99 22.7738C10.1908 22.6712 10.4025 22.5971 10.625 22.5513C10.8738 22.5 11.1325 22.5 11.6525 22.5H22.5037C23.9012 22.5 24.6013 22.5 25.135 22.2275C25.6054 21.9878 25.9878 21.6054 26.2275 21.135C26.5 20.6 26.5 19.9 26.5 18.505V8.99625C26.5 7.59875 26.5 6.89875 26.2275 6.365C25.9875 5.89443 25.6046 5.51197 25.1337 5.2725C24.6 5 23.9 5 22.5 5H8C6.6 5 5.9 5 5.365 5.2725C4.89462 5.51218 4.51218 5.89462 4.2725 6.365C4 6.9 4 7.6 4 9V23.3387C4 24.6712 4 25.3375 4.2725 25.6787C4.38968 25.8259 4.53854 25.9447 4.70801 26.0263C4.87747 26.1078 5.06317 26.1501 5.25125 26.15C5.68875 26.15 6.20875 25.7325 7.25 24.9Z" fill="black" stroke="black" stroke-width="2.75" stroke-linecap="round" stroke-linejoin="round"/>
</svg>
