<svg width="24" height="24" viewBox="0 0 24 24" fill="none" xmlns="http://www.w3.org/2000/svg">
<path d="M10.5 18C10.5 19.1 9.6 20 8.5 20C7.4 20 6.5 19.1 6.5 18C6.5 16.9 7.4 16 8.5 16C9.6 16 10.5 16.9 10.5 18ZM8.5 10C7.4 10 6.5 10.9 6.5 12C6.5 13.1 7.4 14 8.5 14C9.6 14 10.5 13.1 10.5 12C10.5 10.9 9.6 10 8.5 10ZM8.5 4C7.4 4 6.5 4.9 6.5 6C6.5 7.1 7.4 8 8.5 8C9.6 8 10.5 7.1 10.5 6C10.5 4.9 9.6 4 8.5 4ZM14.5 8C15.6 8 16.5 7.1 16.5 6C16.5 4.9 15.6 4 14.5 4C13.4 4 12.5 4.9 12.5 6C12.5 7.1 13.4 8 14.5 8ZM14.5 10C13.4 10 12.5 10.9 12.5 12C12.5 13.1 13.4 14 14.5 14C15.6 14 16.5 13.1 16.5 12C16.5 10.9 15.6 10 14.5 10ZM14.5 16C13.4 16 12.5 16.9 12.5 18C12.5 19.1 13.4 20 14.5 20C15.6 20 16.5 19.1 16.5 18C16.5 16.9 15.6 16 14.5 16Z" fill="#3182CE"/>
</svg>
