<svg width="4" height="16" viewBox="0 0 4 16" fill="none" xmlns="http://www.w3.org/2000/svg">
<path d="M3.82244 0.954545L3.54545 11.1392H0.946023L0.661932 0.954545H3.82244ZM2.24574 15.6847C1.77699 15.6847 1.37453 15.5189 1.03835 15.1875C0.702178 14.8513 0.536458 14.4489 0.541193 13.9801C0.536458 13.5161 0.702178 13.1184 1.03835 12.7869C1.37453 12.4555 1.77699 12.2898 2.24574 12.2898C2.69555 12.2898 3.09091 12.4555 3.43182 12.7869C3.77273 13.1184 3.94555 13.5161 3.95028 13.9801C3.94555 14.2926 3.86269 14.5791 3.7017 14.8395C3.54545 15.0952 3.33949 15.3011 3.08381 15.4574C2.82812 15.6089 2.54877 15.6847 2.24574 15.6847Z" fill="#F56565"/>
</svg>
