<svg width="33" height="33" viewBox="0 0 33 33" fill="none" xmlns="http://www.w3.org/2000/svg">
<g clip-path="url(#clip0_2688_2830)">
<path d="M14.2772 19.2576C14.402 20.5487 14.6101 21.5098 14.9016 22.141C15.1927 22.7721 15.7135 23.0878 16.4639 23.0882C16.6047 23.0882 16.731 23.065 16.8563 23.0412C16.9827 23.065 17.1074 23.0882 17.2477 23.0882C17.9967 23.0878 18.5175 22.7721 18.81 22.141C19.1008 21.5098 19.3086 20.5487 19.4334 19.2576L20.0996 9.29054C20.2244 7.34767 20.2868 5.95325 20.2868 5.10728C20.2868 3.95503 19.9855 3.05681 19.3829 2.41262C18.7779 1.76775 17.9831 1.44514 16.9986 1.44479C16.9471 1.44479 16.9074 1.45665 16.8574 1.45872C16.8073 1.45665 16.7671 1.44479 16.7161 1.44479C15.7305 1.44479 14.936 1.7674 14.3323 2.41262C13.7291 3.05715 13.4274 3.95554 13.4274 5.10779C13.4274 5.95376 13.4898 7.34818 13.6146 9.29106L14.2803 19.2576M16.8764 26.7279C15.9229 26.7286 15.1089 27.0301 14.4344 27.6324C13.7607 28.2374 13.4238 28.9692 13.4238 29.8279C13.4238 30.8007 13.7643 31.5637 14.4453 32.1167C15.128 32.6716 15.923 32.951 16.83 32.951C17.7547 32.9503 18.5615 32.6762 19.2504 32.1286C19.9398 31.5805 20.2816 30.8138 20.2816 29.8274C20.2816 28.9687 19.9521 28.2368 19.2932 27.6318C18.6352 27.0306 17.8293 26.7279 16.8744 26.7279" fill="white"/>
</g>
<defs>
<clipPath id="clip0_2688_2830">
<rect width="33" height="33" fill="white"/>
</clipPath>
</defs>
</svg>
