<svg width="46" height="46" viewBox="0 0 46 46" fill="none" xmlns="http://www.w3.org/2000/svg">
<path d="M11 32.5834V13.5C11 12.9569 11 12 11 11.5C11.5 11.5 12.8749 11.5013 13.4167 11.5C13.9584 11.4987 14.8333 11.5 15.3333 11.5C15.3333 12.1421 15.3359 12.8762 15.3333 13.4167V32.5834C15.3333 33.1264 15.3333 34 15.3333 34.5C14.8333 34.5 13.9584 34.5013 13.4167 34.5C12.8749 34.4987 11.5 34.5 11 34.5C11 34 11 33.1264 11 32.5834ZM22.0896 32.775C21.4507 33.1584 20.8041 33.1584 20.1499 32.775C19.4957 32.3917 19.1679 31.8327 19.1667 31.0979V14.9021C19.1667 14.1674 19.4944 13.6083 20.1499 13.225C20.8054 12.8417 21.452 12.8417 22.0896 13.225L35.6021 21.3708C36.241 21.7542 36.5604 22.2972 36.5604 23C36.5604 23.7028 36.241 24.2458 35.6021 24.6292L22.0896 32.775Z" fill="white"/>
</svg>
