<svg width="20" height="20" viewBox="0 0 20 20" fill="none" xmlns="http://www.w3.org/2000/svg">
<path fill-rule="evenodd" clip-rule="evenodd" d="M16.6949 0.147148C17.135 -0.0122313 17.6114 -0.0428758 18.0683 0.0588053C18.5253 0.160486 18.9437 0.390281 19.2747 0.721263C19.6057 1.05225 19.8355 1.4707 19.9371 1.92761C20.0388 2.38451 20.0082 2.86093 19.8488 3.30103L14.8409 18.3063C14.7092 18.7064 14.4768 19.0659 14.1662 19.3503C13.8555 19.6347 13.4769 19.8344 13.0668 19.9304C12.6572 20.0306 12.2286 20.0225 11.8231 19.9068C11.4176 19.7911 11.0492 19.5718 10.7542 19.2704L8.16457 16.6979L5.46491 18.092C5.32717 18.163 5.17333 18.1968 5.01853 18.1903C4.86372 18.1838 4.71328 18.1371 4.582 18.0548C4.45072 17.9725 4.34311 17.8575 4.26976 17.721C4.19641 17.5845 4.15984 17.4313 4.16365 17.2764L4.27792 12.8027L0.714086 9.23743C0.429668 8.95395 0.219989 8.60437 0.103824 8.21998C-0.0123401 7.83559 -0.0313642 7.42839 0.0484557 7.03485C0.127813 6.60589 0.319952 6.2058 0.605129 5.87569C0.890305 5.54558 1.25823 5.29735 1.67111 5.15651L1.67825 5.15366L16.6949 0.147148ZM17.6805 1.7998C17.5438 1.76925 17.401 1.78224 17.272 1.83693L2.24532 6.8463C2.13193 6.88531 2.03106 6.95397 1.95319 7.04515C1.87532 7.13634 1.8233 7.24671 1.80252 7.36481L1.79823 7.3848C1.77609 7.48977 1.78056 7.5986 1.81125 7.70139C1.84193 7.80418 1.89786 7.89766 1.97393 7.9733L4.75929 10.7558L13.801 4.78942C13.9505 4.69144 14.1313 4.65309 14.3077 4.68192C14.4841 4.71076 14.6433 4.80469 14.7538 4.94517C14.8643 5.08565 14.9181 5.26246 14.9046 5.44069C14.8911 5.61892 14.8113 5.78561 14.6809 5.90785L6.03484 13.9983L5.9877 15.8123L7.92317 14.8124C8.09096 14.7254 8.28206 14.6938 8.46894 14.7223C8.65582 14.7508 8.82882 14.8379 8.96304 14.971L12.0169 18.0092L12.0255 18.0177C12.104 18.099 12.2024 18.1582 12.311 18.1893C12.4196 18.2203 12.5344 18.2223 12.644 18.1949L12.6554 18.192C12.7684 18.1662 12.8728 18.1116 12.9584 18.0335C13.044 17.9554 13.1079 17.8565 13.1439 17.7463V17.7435L18.159 2.72254L18.169 2.69397C18.2033 2.60345 18.2175 2.5066 18.2108 2.41006C18.2041 2.31351 18.1766 2.21956 18.1302 2.13463C18.0838 2.0497 18.0196 1.97581 17.942 1.91802C17.8644 1.86022 17.7752 1.8199 17.6805 1.7998Z" fill="white"/>
</svg>
