<svg width="512" height="512" viewBox="0 0 512 512" fill="none" xmlns="http://www.w3.org/2000/svg">
<rect width="512" height="512" fill="white"/>
<path d="M253.762 412C254.962 412 256.162 411.7 257.362 411.1C258.562 410.5 259.462 409.9 260.062 409.3L407.653 261.7C411.253 258.1 413.881 254.05 415.536 249.55C417.192 245.05 418.014 240.55 418.002 236.05C418.002 231.25 417.18 226.672 415.536 222.316C413.893 217.96 411.265 214.138 407.653 210.85L331.158 134.35C327.858 130.75 324.03 128.128 319.674 126.484C315.319 124.84 310.753 124.012 305.977 124C301.478 124 296.978 124.828 292.478 126.484C287.978 128.14 283.929 130.762 280.329 134.35L275.379 139.3L308.677 173.05C313.177 177.25 316.477 182.05 318.576 187.45C320.676 192.85 321.726 198.55 321.726 204.55C321.726 217.15 317.455 227.728 308.911 236.284C300.368 244.84 289.79 249.112 277.179 249.1C271.179 249.1 265.408 248.05 259.864 245.95C254.32 243.85 249.443 240.7 245.231 236.5L211.465 203.2L132.72 281.95C131.82 282.85 131.148 283.828 130.704 284.884C130.26 285.94 130.032 287.062 130.02 288.25C130.02 290.65 130.92 292.828 132.72 294.784C134.52 296.74 136.62 297.712 139.02 297.7C140.22 297.7 141.419 297.4 142.619 296.8C143.819 296.2 144.719 295.6 145.319 295L193.916 246.4C197.216 243.1 201.344 241.372 206.299 241.216C211.255 241.06 215.527 242.788 219.115 246.4C222.414 249.7 224.064 253.9 224.064 259C224.064 264.1 222.414 268.3 219.115 271.6L170.968 320.2C170.068 321.1 169.396 322.078 168.952 323.134C168.508 324.19 168.28 325.312 168.268 326.5C168.268 328.9 169.168 331 170.968 332.8C172.768 334.6 174.867 335.5 177.267 335.5C178.467 335.5 179.667 335.2 180.867 334.6C182.067 334 182.967 333.4 183.567 332.8L232.164 284.65C235.464 281.35 239.591 279.622 244.547 279.466C249.503 279.31 253.774 281.038 257.362 284.65C260.662 287.95 262.312 292.15 262.312 297.25C262.312 302.35 260.662 306.55 257.362 309.85L209.215 358.45C208.315 359.05 207.643 359.95 207.199 361.15C206.755 362.35 206.527 363.55 206.515 364.75C206.515 367.15 207.415 369.25 209.215 371.05C211.015 372.85 213.115 373.75 215.515 373.75C216.715 373.75 217.843 373.522 218.899 373.066C219.955 372.61 220.927 371.938 221.814 371.05L270.411 322.9C273.711 319.6 277.839 317.872 282.795 317.716C287.75 317.56 292.022 319.288 295.61 322.9C298.91 326.2 300.56 330.4 300.56 335.5C300.56 340.6 298.91 344.8 295.61 348.1L247.013 396.7C246.113 397.6 245.441 398.578 244.997 399.634C244.553 400.69 244.325 401.812 244.313 403C244.313 405.4 245.291 407.5 247.247 409.3C249.203 411.1 251.375 412 253.762 412ZM253.313 448C242.213 448 232.392 444.328 223.848 436.984C215.305 429.64 210.277 420.412 208.765 409.3C198.566 407.8 190.016 403.6 183.117 396.7C176.217 389.8 172.018 381.25 170.518 371.05C160.318 369.55 151.847 365.278 145.103 358.234C138.36 351.19 134.232 342.712 132.72 332.8C121.321 331.3 112.021 326.35 104.822 317.95C97.6222 309.55 94.0224 299.65 94.0224 288.25C94.0224 282.25 95.1503 276.478 97.4062 270.934C99.6621 265.39 102.884 260.512 107.072 256.3L185.817 177.55C192.716 170.65 201.194 167.2 211.249 167.2C221.304 167.2 229.776 170.65 236.664 177.55L270.411 211.3C271.011 212.2 271.911 212.878 273.111 213.334C274.311 213.79 275.511 214.012 276.711 214C279.411 214 281.661 213.178 283.461 211.534C285.261 209.89 286.16 207.712 286.16 205C286.16 203.8 285.932 202.6 285.477 201.4C285.021 200.2 284.349 199.3 283.461 198.7L219.115 134.35C215.815 130.75 211.993 128.128 207.649 126.484C203.306 124.84 198.728 124.012 193.916 124C189.416 124 184.917 124.828 180.417 126.484C175.917 128.14 171.868 130.762 168.268 134.35L104.822 198.25C100.622 202.45 97.6222 207.4 95.8223 213.1C94.0224 218.8 93.5724 224.5 94.4724 230.2C95.3723 235.3 94.3224 239.8 91.3226 243.7C88.3228 247.6 84.273 249.85 79.1733 250.45C74.0737 251.05 69.5739 249.922 65.6742 247.066C61.7744 244.21 59.5246 240.238 58.9246 235.15C57.1247 223.75 57.9527 212.578 61.4084 201.634C64.8642 190.69 70.7859 181.012 79.1733 172.6L142.619 109.15C149.819 102.25 157.846 97 166.702 93.4C175.557 89.8 184.629 88 193.916 88C203.204 88 212.281 89.8 221.148 93.4C230.016 97 237.887 102.25 244.763 109.15L249.713 114.1L254.662 109.15C261.862 102.25 269.889 97 278.745 93.4C287.6 89.8 296.672 88 305.959 88C315.247 88 324.324 89.8 333.192 93.4C342.059 97 349.93 102.25 356.806 109.15L432.851 185.2C439.751 192.1 445.001 200.05 448.6 209.05C452.2 218.05 454 227.2 454 236.5C454 245.8 452.2 254.878 448.6 263.734C445.001 272.59 439.751 280.462 432.851 287.35L285.261 434.5C281.061 438.7 276.189 442 270.645 444.4C265.102 446.8 259.324 448 253.313 448Z" fill="#3182CE"/>
</svg>
