<svg width="40" height="40" viewBox="0 0 40 40" fill="none" xmlns="http://www.w3.org/2000/svg">
<rect width="40" height="40" fill="white"/>
<path d="M29.9167 7.25H10.0833C8.525 7.25 7.25 8.525 7.25 10.0833V29.9167C7.25 31.475 8.525 32.75 10.0833 32.75H29.9167C31.475 32.75 32.75 31.475 32.75 29.9167V10.0833C32.75 8.525 31.475 7.25 29.9167 7.25ZM20 11.5C22.7342 11.5 24.9583 13.7242 24.9583 16.4583C24.9583 19.1925 22.7342 21.4167 20 21.4167C17.2658 21.4167 15.0417 19.1925 15.0417 16.4583C15.0417 13.7242 17.2658 11.5 20 11.5ZM29.9167 29.9167H10.0833V29.5908C10.0833 28.7125 10.48 27.8908 11.16 27.3525C13.5825 25.4117 16.6567 24.25 20 24.25C23.3433 24.25 26.4175 25.4117 28.84 27.3525C29.52 27.8908 29.9167 28.7267 29.9167 29.5908V29.9167Z" fill="#1C1B1F"/>
</svg>
