<svg width="40" height="40" viewBox="0 0 40 40" fill="none" xmlns="http://www.w3.org/2000/svg">
<rect width="40" height="40" fill="white"/>
<path d="M29.9167 7.25H10.0833C8.525 7.25 7.25 8.525 7.25 10.0833V29.9167C7.25 31.475 8.525 32.75 10.0833 32.75H29.9167C31.475 32.75 32.75 31.475 32.75 29.9167V10.0833C32.75 8.525 31.475 7.25 29.9167 7.25ZM27.0833 29.9167H12.9167V29.5767C14.9283 27.9617 17.3933 27.0833 20 27.0833C22.6067 27.0833 25.0717 27.9617 27.0833 29.5767V29.9167ZM29.9167 28.3017C27.3667 25.7942 23.8675 24.25 20 24.25C16.1325 24.25 12.6333 25.7942 10.0833 28.3017V10.0833H29.9167V28.3017ZM20 21.4167C22.7342 21.4167 24.9583 19.1925 24.9583 16.4583C24.9583 13.7242 22.7342 11.5 20 11.5C17.2658 11.5 15.0417 13.7242 15.0417 16.4583C15.0417 19.1925 17.2658 21.4167 20 21.4167ZM20 14.3333C21.1758 14.3333 22.125 15.2825 22.125 16.4583C22.125 17.6342 21.1758 18.5833 20 18.5833C18.8242 18.5833 17.875 17.6342 17.875 16.4583C17.875 15.2825 18.8242 14.3333 20 14.3333Z" fill="#1C1B1F"/>
</svg>
