<svg width="21" height="21" viewBox="0 0 21 21" fill="none" xmlns="http://www.w3.org/2000/svg">
<path d="M15.5832 18.8633H2.58317V5.62501H10.1665V3.45834H2.58317C1.3915 3.45834 0.416504 4.43334 0.416504 5.62501V18.625C0.416504 19.8167 1.3915 20.7917 2.58317 20.7917H15.5832C16.7748 20.7917 17.7498 19.8167 17.7498 18.625V11.0417H15.5832V18.8633Z" fill="#3182CE"/>
<path d="M17.7498 0.208344H15.5832V3.45834H12.3332C12.344 3.46918 12.3332 5.62501 12.3332 5.62501H15.5832V8.86418C15.594 8.87501 17.7498 8.86418 17.7498 8.86418V5.62501H20.9998V3.45834H17.7498V0.208344Z" fill="#3182CE"/>
<path d="M13.4165 7.79168H4.74984V9.95834H13.4165V7.79168Z" fill="#3182CE"/>
<path d="M4.74984 11.0417V13.2083H13.4165V11.0417H4.74984Z" fill="#3182CE"/>
<path d="M13.4165 14.2917H4.74984V16.4583H13.4165V14.2917Z" fill="#3182CE"/>
</svg>
