<svg width="35" height="34" viewBox="0 0 35 34" fill="none" xmlns="http://www.w3.org/2000/svg">
<path d="M10.4165 19.125C12.7682 19.125 14.6665 17.2267 14.6665 14.875C14.6665 12.5233 12.7682 10.625 10.4165 10.625C8.06484 10.625 6.1665 12.5233 6.1665 14.875C6.1665 17.2267 8.06484 19.125 10.4165 19.125ZM10.4165 13.4583C11.1957 13.4583 11.8332 14.0958 11.8332 14.875C11.8332 15.6542 11.1957 16.2917 10.4165 16.2917C9.63734 16.2917 8.99984 15.6542 8.99984 14.875C8.99984 14.0958 9.63734 13.4583 10.4165 13.4583ZM27.4165 9.20833H16.0832V20.5417H4.74984V6.375H1.9165V27.625H4.74984V23.375H30.2498V27.625H33.0832V14.875C33.0832 11.7442 30.5473 9.20833 27.4165 9.20833ZM30.2498 20.5417H18.9165V12.0417H27.4165C28.9748 12.0417 30.2498 13.3167 30.2498 14.875V20.5417Z" fill="#1C1B1F"/>
</svg>
